<?xml version="1.0"?>
<svg xmlns="http://www.w3.org/2000/svg" xmlns:xlink="http://www.w3.org/1999/xlink" version="1.1" viewBox="0 0 192 192" width="26px" height="26px"><g fill="none" fill-rule="nonzero" stroke="none" stroke-width="1" stroke-linecap="butt" stroke-linejoin="miter" stroke-miterlimit="10" stroke-dasharray="" stroke-dashoffset="0" font-family="none" font-weight="none" font-size="none" text-anchor="none" style="mix-blend-mode: normal"><path d="M0,192v-192h192v192z" fill="none"/><g fill="#01d860"><g id="surface1"><path d="M96,7.38462c-48.86538,0 -88.61538,39.75 -88.61538,88.61538c0,48.86539 39.75,88.61538 88.61538,88.61538c48.86539,0 88.61538,-39.75 88.61538,-88.61538c0,-48.86538 -39.75,-88.61538 -88.61538,-88.61538zM96,22.15385c40.875,0 73.84615,32.97116 73.84615,73.84615c0,40.875 -32.97116,73.84615 -73.84615,73.84615c-40.875,0 -73.84615,-32.97116 -73.84615,-73.84615c0,-40.875 32.97116,-73.84615 73.84615,-73.84615zM126.92308,52.15385c-1.09615,0.17308 -2.01923,0.75 -2.76923,1.84615l-36.23077,53.76923l-17.07692,-16.84615c-1.47116,-2.22115 -4.29808,-2.39423 -5.76923,-0.92308l-6.69231,6.69231c-1.47116,2.22115 -1.47116,5.22115 0,6.69231l25.84615,25.84615c1.47116,0.75 3.54808,2.30769 5.76923,2.30769c1.47116,0 3.83654,-0.77885 5.30769,-3l44.30769,-65.07692c1.47116,-2.22115 0.63462,-4.29808 -2.30769,-5.76923l-7.38462,-5.30769c-0.75,-0.375 -1.90384,-0.40384 -3,-0.23077z"/></g></g></g></svg>
